<?xml version="1.0" encoding="UTF-8" standalone="no"?>
<!DOCTYPE svg PUBLIC "-//W3C//DTD SVG 1.1//EN"
"http://www.w3.org/Graphics/SVG/1.1/DTD/svg11.dtd">


<!-- Page 1 -->
<svg x="0" y="0" width="935" height="1210" viewBox="0 0 935 1210" version="1.1" xmlns="http://www.w3.org/2000/svg" xmlns:xlink="http://www.w3.org/1999/xlink"
style="display: block;margin-left: auto;margin-right: auto;">
<defs>

<style type="text/css"><![CDATA[

.g1_1{
fill: #FFFFFF;
}
.g2_1{
}

.s1_1{
font-size: 19.48px;
font-family: Verdana-Bold_b;
fill: #000000;
}
.s2_1{
font-size: 16.04px;
font-family: Verdana-Bold_g;
fill: #000000;
}
.s3_1{
font-size: 11.55px;
font-family: Verdana_l;
fill: #000000;
}
.s4_1{
font-size: 11.55px;
font-family: Verdana-Italic_q;
fill: #000000;
}
.s5_1{
font-size: 11.55px;
font-family: MS-PMincho_z;
fill: #000000;
}
.s6_1{
font-size: 15.28px;
font-family: HelveticaNeue_13;
fill: #000000;
}

]]></style>

</defs>
<path d="M0,0
L0,1210
L935,1210
L935,0 Z " 
fill="#FFFFFF" stroke="none" />
<path d="M82.5,73.3l770,0l0,1063.4l-770,0L82.5,73.3Z" class="g1_1" />
<path d="M117.2,108l700.6,0l0,24.4l-700.6,0l0,-24.4Z" class="g1_1" />
<path d="M117.2,145.7l700.6,0l0,21.4l-700.6,0l0,-21.4Z" class="g1_1" />
<path d="M117.2,180.5l700.6,0l0,15.2l-700.6,0l0,-15.2Z" class="g1_1" />
<path d="M163,180.5l654.8,0l0,15.2l-654.8,0l0,-15.2Z" class="g1_1" />
<path d="M117.2,209l700.6,0l0,21.4l-700.6,0l0,-21.4Z" class="g1_1" />
<path d="M117.2,243.7l700.6,0l0,45.9l-700.6,0l0,-45.9Z" class="g1_1" />
<path d="M163,243.7l654.8,0l0,15.3L163,259l0,-15.3Z" class="g1_1" />
<path d="M163,259l654.8,0l0,15.3l-654.8,0L163,259Z" class="g1_1" />
<path d="M163,274.3l654.8,0l0,15.3l-654.8,0l0,-15.3Z" class="g1_1" />
<path d="M117.2,302.9l700.6,0l0,21.4l-700.6,0l0,-21.4Z" class="g1_1" />
<path d="M117.2,337.6l700.6,0l0,15.3l-700.6,0l0,-15.3Z" class="g1_1" />
<path d="M163,337.6l654.8,0l0,15.3l-654.8,0l0,-15.3Z" class="g1_1" />
<path d="M117.2,366.2l700.6,0l0,21.4l-700.6,0l0,-21.4Z" class="g1_1" />
<path d="M117.2,400.9l394.9,0l0,379.3l-394.9,0l0,-379.3Z" class="g1_1" />
<path d="M117.2,400.9l37.5,0l0,16.4l-37.5,0l0,-16.4Z" class="g1_1" />
<path d="M117.2,400.9l37.5,0l0,16.4l-37.5,0l0,-16.4Z" class="g1_1" />
<path d="M154.7,400.9l306,0l0,16.4l-306,0l0,-16.4Z" class="g1_1" />
<path d="M154.7,400.9l306,0l0,16.4l-306,0l0,-16.4Z" class="g1_1" />
<path d="M460.7,400.9l51.4,0l0,16.4l-51.4,0l0,-16.4Z" class="g1_1" />
<path d="M460.7,400.9l51.4,0l0,16.4l-51.4,0l0,-16.4Z" class="g1_1" />
<path d="M117.2,417.3l37.5,0l0,16.5l-37.5,0l0,-16.5Z" class="g1_1" />
<path d="M117.2,417.3l37.5,0l0,16.5l-37.5,0l0,-16.5Z" class="g1_1" />
<path d="M154.7,417.3l37.6,0l0,16.5l-37.6,0l0,-16.5Z" class="g1_1" />
<path d="M154.7,417.3l37.6,0l0,16.5l-37.6,0l0,-16.5Z" class="g1_1" />
<path d="M192.3,417.3l268.4,0l0,16.5l-268.4,0l0,-16.5Z" class="g1_1" />
<path d="M192.3,417.3l268.4,0l0,16.5l-268.4,0l0,-16.5Z" class="g1_1" />
<path d="M460.7,417.3l51.4,0l0,16.5l-51.4,0l0,-16.5Z" class="g1_1" />
<path d="M460.7,417.3l51.4,0l0,16.5l-51.4,0l0,-16.5Z" class="g1_1" />
<path d="M117.2,433.8l37.5,0l0,16.4l-37.5,0l0,-16.4Z" class="g1_1" />
<path d="M117.2,433.8l37.5,0l0,16.4l-37.5,0l0,-16.4Z" class="g1_1" />
<path d="M154.7,433.8l37.6,0l0,16.4l-37.6,0l0,-16.4Z" class="g1_1" />
<path d="M154.7,433.8l37.6,0l0,16.4l-37.6,0l0,-16.4Z" class="g1_1" />
<path d="M192.3,433.8l268.4,0l0,16.4l-268.4,0l0,-16.4Z" class="g1_1" />
<path d="M192.3,433.8l268.4,0l0,16.4l-268.4,0l0,-16.4Z" class="g1_1" />
<path d="M460.7,433.8l51.4,0l0,16.4l-51.4,0l0,-16.4Z" class="g1_1" />
<path d="M460.7,433.8l51.4,0l0,16.4l-51.4,0l0,-16.4Z" class="g1_1" />
<path d="M117.2,450.2l37.5,0l0,16.4l-37.5,0l0,-16.4Z" class="g1_1" />
<path d="M117.2,450.2l37.5,0l0,16.4l-37.5,0l0,-16.4Z" class="g1_1" />
<path d="M154.7,450.2l37.6,0l0,16.4l-37.6,0l0,-16.4Z" class="g1_1" />
<path d="M154.7,450.2l37.6,0l0,16.4l-37.6,0l0,-16.4Z" class="g1_1" />
<path d="M192.3,450.2l268.4,0l0,16.4l-268.4,0l0,-16.4Z" class="g1_1" />
<path d="M192.3,450.2l268.4,0l0,16.4l-268.4,0l0,-16.4Z" class="g1_1" />
<path d="M460.7,450.2l51.4,0l0,16.4l-51.4,0l0,-16.4Z" class="g1_1" />
<path d="M460.7,450.2l51.4,0l0,16.4l-51.4,0l0,-16.4Z" class="g1_1" />
<path d="M117.2,466.6l37.5,0l0,16.5l-37.5,0l0,-16.5Z" class="g1_1" />
<path d="M117.2,466.6l37.5,0l0,16.5l-37.5,0l0,-16.5Z" class="g1_1" />
<path d="M154.7,466.6l37.6,0l0,16.5l-37.6,0l0,-16.5Z" class="g1_1" />
<path d="M154.7,466.6l37.6,0l0,16.5l-37.6,0l0,-16.5Z" class="g1_1" />
<path d="M192.3,466.6l268.4,0l0,16.5l-268.4,0l0,-16.5Z" class="g1_1" />
<path d="M192.3,466.6l268.4,0l0,16.5l-268.4,0l0,-16.5Z" class="g1_1" />
<path d="M460.7,466.6l51.4,0l0,16.5l-51.4,0l0,-16.5Z" class="g1_1" />
<path d="M460.7,466.6l51.4,0l0,16.5l-51.4,0l0,-16.5Z" class="g1_1" />
<path d="M117.2,483.1l37.5,0l0,16.4l-37.5,0l0,-16.4Z" class="g1_1" />
<path d="M117.2,483.1l37.5,0l0,16.4l-37.5,0l0,-16.4Z" class="g1_1" />
<path d="M154.7,483.1l306,0l0,16.4l-306,0l0,-16.4Z" class="g1_1" />
<path d="M154.7,483.1l306,0l0,16.4l-306,0l0,-16.4Z" class="g1_1" />
<path d="M460.7,483.1l51.4,0l0,16.4l-51.4,0l0,-16.4Z" class="g1_1" />
<path d="M460.7,483.1l51.4,0l0,16.4l-51.4,0l0,-16.4Z" class="g1_1" />
<path d="M117.2,499.5l37.5,0l0,16.5l-37.5,0l0,-16.5Z" class="g1_1" />
<path d="M117.2,499.5l37.5,0l0,16.5l-37.5,0l0,-16.5Z" class="g1_1" />
<path d="M154.7,499.5l37.6,0l0,16.5l-37.6,0l0,-16.5Z" class="g1_1" />
<path d="M154.7,499.5l37.6,0l0,16.5l-37.6,0l0,-16.5Z" class="g1_1" />
<path d="M192.3,499.5l268.4,0l0,16.5l-268.4,0l0,-16.5Z" class="g1_1" />
<path d="M192.3,499.5l268.4,0l0,16.5l-268.4,0l0,-16.5Z" class="g1_1" />
<path d="M460.7,499.5l51.4,0l0,16.5l-51.4,0l0,-16.5Z" class="g1_1" />
<path d="M460.7,499.5l51.4,0l0,16.5l-51.4,0l0,-16.5Z" class="g1_1" />
<path d="M117.2,516l37.5,0l0,16.4l-37.5,0l0,-16.4Z" class="g1_1" />
<path d="M117.2,516l37.5,0l0,16.4l-37.5,0l0,-16.4Z" class="g1_1" />
<path d="M154.7,516l37.6,0l0,16.4l-37.6,0l0,-16.4Z" class="g1_1" />
<path d="M154.7,516l37.6,0l0,16.4l-37.6,0l0,-16.4Z" class="g1_1" />
<path d="M192.3,516l268.4,0l0,16.4l-268.4,0l0,-16.4Z" class="g1_1" />
<path d="M192.3,516l268.4,0l0,16.4l-268.4,0l0,-16.4Z" class="g1_1" />
<path d="M460.7,516l51.4,0l0,16.4l-51.4,0l0,-16.4Z" class="g1_1" />
<path d="M460.7,516l51.4,0l0,16.4l-51.4,0l0,-16.4Z" class="g1_1" />
<path d="M117.2,532.4l37.5,0l0,16.5l-37.5,0l0,-16.5Z" class="g1_1" />
<path d="M117.2,532.4l37.5,0l0,16.5l-37.5,0l0,-16.5Z" class="g1_1" />
<path d="M154.7,532.4l306,0l0,16.5l-306,0l0,-16.5Z" class="g1_1" />
<path d="M154.7,532.4l306,0l0,16.5l-306,0l0,-16.5Z" class="g1_1" />
<path d="M460.7,532.4l51.4,0l0,16.5l-51.4,0l0,-16.5Z" class="g1_1" />
<path d="M460.7,532.4l51.4,0l0,16.5l-51.4,0l0,-16.5Z" class="g1_1" />
<path d="M117.2,548.9l37.5,0l0,16.4l-37.5,0l0,-16.4Z" class="g1_1" />
<path d="M117.2,548.9l37.5,0l0,16.4l-37.5,0l0,-16.4Z" class="g1_1" />
<path d="M154.7,548.9l306,0l0,16.4l-306,0l0,-16.4Z" class="g1_1" />
<path d="M154.7,548.9l306,0l0,16.4l-306,0l0,-16.4Z" class="g1_1" />
<path d="M460.7,548.9l51.4,0l0,16.4l-51.4,0l0,-16.4Z" class="g1_1" />
<path d="M460.7,548.9l51.4,0l0,16.4l-51.4,0l0,-16.4Z" class="g1_1" />
<path d="M117.2,565.3l37.5,0l0,16.4l-37.5,0l0,-16.4Z" class="g1_1" />
<path d="M117.2,565.3l37.5,0l0,16.4l-37.5,0l0,-16.4Z" class="g1_1" />
<path d="M154.7,565.3l306,0l0,16.4l-306,0l0,-16.4Z" class="g1_1" />
<path d="M154.7,565.3l306,0l0,16.4l-306,0l0,-16.4Z" class="g1_1" />
<path d="M460.7,565.3l51.4,0l0,16.4l-51.4,0l0,-16.4Z" class="g1_1" />
<path d="M460.7,565.3l51.4,0l0,16.4l-51.4,0l0,-16.4Z" class="g1_1" />
<path d="M117.2,581.7l37.5,0l0,16.5l-37.5,0l0,-16.5Z" class="g1_1" />
<path d="M117.2,581.7l37.5,0l0,16.5l-37.5,0l0,-16.5Z" class="g1_1" />
<path d="M154.7,581.7l37.6,0l0,16.5l-37.6,0l0,-16.5Z" class="g1_1" />
<path d="M154.7,581.7l37.6,0l0,16.5l-37.6,0l0,-16.5Z" class="g1_1" />
<path d="M192.3,581.7l268.4,0l0,16.5l-268.4,0l0,-16.5Z" class="g1_1" />
<path d="M192.3,581.7l268.4,0l0,16.5l-268.4,0l0,-16.5Z" class="g1_1" />
<path d="M460.7,581.7l51.4,0l0,16.5l-51.4,0l0,-16.5Z" class="g1_1" />
<path d="M460.7,581.7l51.4,0l0,16.5l-51.4,0l0,-16.5Z" class="g1_1" />
<path d="M117.2,598.2l37.5,0l0,16.4l-37.5,0l0,-16.4Z" class="g1_1" />
<path d="M117.2,598.2l37.5,0l0,16.4l-37.5,0l0,-16.4Z" class="g1_1" />
<path d="M154.7,598.2l37.6,0l0,16.4l-37.6,0l0,-16.4Z" class="g1_1" />
<path d="M154.7,598.2l37.6,0l0,16.4l-37.6,0l0,-16.4Z" class="g1_1" />
<path d="M192.3,598.2l268.4,0l0,16.4l-268.4,0l0,-16.4Z" class="g1_1" />
<path d="M192.3,598.2l268.4,0l0,16.4l-268.4,0l0,-16.4Z" class="g1_1" />
<path d="M460.7,598.2l51.4,0l0,16.4l-51.4,0l0,-16.4Z" class="g1_1" />
<path d="M460.7,598.2l51.4,0l0,16.4l-51.4,0l0,-16.4Z" class="g1_1" />
<path d="M117.2,614.6l37.5,0l0,16.5l-37.5,0l0,-16.5Z" class="g1_1" />
<path d="M117.2,614.6l37.5,0l0,16.5l-37.5,0l0,-16.5Z" class="g1_1" />
<path d="M154.7,614.6l306,0l0,16.5l-306,0l0,-16.5Z" class="g1_1" />
<path d="M154.7,614.6l306,0l0,16.5l-306,0l0,-16.5Z" class="g1_1" />
<path d="M460.7,614.6l51.4,0l0,16.5l-51.4,0l0,-16.5Z" class="g1_1" />
<path d="M460.7,614.6l51.4,0l0,16.5l-51.4,0l0,-16.5Z" class="g1_1" />
<path d="M117.2,631.1l37.5,0l0,16.4l-37.5,0l0,-16.4Z" class="g1_1" />
<path d="M117.2,631.1l37.5,0l0,16.4l-37.5,0l0,-16.4Z" class="g1_1" />
<path d="M154.7,631.1l306,0l0,16.4l-306,0l0,-16.4Z" class="g1_1" />
<path d="M154.7,631.1l306,0l0,16.4l-306,0l0,-16.4Z" class="g1_1" />
<path d="M460.7,631.1l51.4,0l0,16.4l-51.4,0l0,-16.4Z" class="g1_1" />
<path d="M460.7,631.1l51.4,0l0,16.4l-51.4,0l0,-16.4Z" class="g1_1" />
<path d="M117.2,647.5l37.5,0l0,16.5l-37.5,0l0,-16.5Z" class="g1_1" />
<path d="M117.2,647.5l37.5,0l0,16.5l-37.5,0l0,-16.5Z" class="g1_1" />
<path d="M154.7,647.5l306,0l0,16.5l-306,0l0,-16.5Z" class="g1_1" />
<path d="M154.7,647.5l306,0l0,16.5l-306,0l0,-16.5Z" class="g1_1" />
<path d="M460.7,647.5l51.4,0l0,16.5l-51.4,0l0,-16.5Z" class="g1_1" />
<path d="M460.7,647.5l51.4,0l0,16.5l-51.4,0l0,-16.5Z" class="g1_1" />
<path d="M117.2,664l37.5,0l0,16.4l-37.5,0l0,-16.4Z" class="g1_1" />
<path d="M117.2,664l37.5,0l0,16.4l-37.5,0l0,-16.4Z" class="g1_1" />
<path d="M154.7,664l306,0l0,16.4l-306,0l0,-16.4Z" class="g1_1" />
<path d="M154.7,664l306,0l0,16.4l-306,0l0,-16.4Z" class="g1_1" />
<path d="M460.7,664l51.4,0l0,16.4l-51.4,0l0,-16.4Z" class="g1_1" />
<path d="M460.7,664l51.4,0l0,16.4l-51.4,0l0,-16.4Z" class="g1_1" />
<path d="M117.2,680.4l37.5,0l0,16.4l-37.5,0l0,-16.4Z" class="g1_1" />
<path d="M117.2,680.4l37.5,0l0,16.4l-37.5,0l0,-16.4Z" class="g1_1" />
<path d="M154.7,680.4l306,0l0,16.4l-306,0l0,-16.4Z" class="g1_1" />
<path d="M154.7,680.4l306,0l0,16.4l-306,0l0,-16.4Z" class="g1_1" />
<path d="M460.7,680.4l51.4,0l0,16.4l-51.4,0l0,-16.4Z" class="g1_1" />
<path d="M460.7,680.4l51.4,0l0,16.4l-51.4,0l0,-16.4Z" class="g1_1" />
<path d="M117.2,696.8l37.5,0l0,16.5l-37.5,0l0,-16.5Z" class="g1_1" />
<path d="M117.2,696.8l37.5,0l0,16.5l-37.5,0l0,-16.5Z" class="g1_1" />
<path d="M154.7,696.8l306,0l0,16.5l-306,0l0,-16.5Z" class="g1_1" />
<path d="M154.7,696.8l306,0l0,16.5l-306,0l0,-16.5Z" class="g1_1" />
<path d="M460.7,696.8l51.4,0l0,16.5l-51.4,0l0,-16.5Z" class="g1_1" />
<path d="M460.7,696.8l51.4,0l0,16.5l-51.4,0l0,-16.5Z" class="g1_1" />
<path d="M117.2,713.3l37.5,0l0,16.4l-37.5,0l0,-16.4Z" class="g1_1" />
<path d="M117.2,713.3l37.5,0l0,16.4l-37.5,0l0,-16.4Z" class="g1_1" />
<path d="M154.7,713.3l306,0l0,16.4l-306,0l0,-16.4Z" class="g1_1" />
<path d="M154.7,713.3l306,0l0,16.4l-306,0l0,-16.4Z" class="g1_1" />
<path d="M460.7,713.3l51.4,0l0,16.4l-51.4,0l0,-16.4Z" class="g1_1" />
<path d="M460.7,713.3l51.4,0l0,16.4l-51.4,0l0,-16.4Z" class="g1_1" />
<path d="M117.2,729.7l37.5,0l0,16.5l-37.5,0l0,-16.5Z" class="g1_1" />
<path d="M117.2,729.7l37.5,0l0,16.5l-37.5,0l0,-16.5Z" class="g1_1" />
<path d="M154.7,729.7l37.6,0l0,16.5l-37.6,0l0,-16.5Z" class="g1_1" />
<path d="M154.7,729.7l37.6,0l0,16.5l-37.6,0l0,-16.5Z" class="g1_1" />
<path d="M192.3,729.7l268.4,0l0,16.5l-268.4,0l0,-16.5Z" class="g1_1" />
<path d="M192.3,729.7l268.4,0l0,16.5l-268.4,0l0,-16.5Z" class="g1_1" />
<path d="M460.7,729.7l51.4,0l0,16.5l-51.4,0l0,-16.5Z" class="g1_1" />
<path d="M460.7,729.7l51.4,0l0,16.5l-51.4,0l0,-16.5Z" class="g1_1" />
<path d="M117.2,746.2l37.5,0l0,16.4l-37.5,0l0,-16.4Z" class="g1_1" />
<path d="M117.2,746.2l37.5,0l0,16.4l-37.5,0l0,-16.4Z" class="g1_1" />
<path d="M154.7,746.2l37.6,0l0,16.4l-37.6,0l0,-16.4Z" class="g1_1" />
<path d="M154.7,746.2l37.6,0l0,16.4l-37.6,0l0,-16.4Z" class="g1_1" />
<path d="M192.3,746.2l268.4,0l0,16.4l-268.4,0l0,-16.4Z" class="g1_1" />
<path d="M192.3,746.2l268.4,0l0,16.4l-268.4,0l0,-16.4Z" class="g1_1" />
<path d="M460.7,746.2l51.4,0l0,16.4l-51.4,0l0,-16.4Z" class="g1_1" />
<path d="M460.7,746.2l51.4,0l0,16.4l-51.4,0l0,-16.4Z" class="g1_1" />
<path d="M117.2,762.6l343.5,0l0,17.6l-343.5,0l0,-17.6Z" class="g1_1" />
<path d="M117.2,762.6l343.5,0l0,17.6l-343.5,0l0,-17.6Z" class="g1_1" />
<path d="M460.7,762.6l51.4,0l0,17.6l-51.4,0l0,-17.6Z" class="g1_1" />
<path d="M460.7,762.6l51.4,0l0,17.6l-51.4,0l0,-17.6Z" class="g1_1" />
<path d="M117.2,400.9l37.5,0l0,16.4l-37.5,0l0,-16.4Z" class="g1_1" />
<path d="M154.7,400.9l306,0l0,16.4l-306,0l0,-16.4Z" class="g1_1" />
<path d="M460.7,400.9l51.4,0l0,16.4l-51.4,0l0,-16.4Z" class="g1_1" />
<path d="M117.2,417.3l37.5,0l0,16.5l-37.5,0l0,-16.5Z" class="g1_1" />
<path d="M154.7,417.3l37.6,0l0,16.5l-37.6,0l0,-16.5Z" class="g1_1" />
<path d="M192.3,417.3l268.4,0l0,16.5l-268.4,0l0,-16.5Z" class="g1_1" />
<path d="M460.7,417.3l51.4,0l0,16.5l-51.4,0l0,-16.5Z" class="g1_1" />
<path d="M117.2,433.8l37.5,0l0,16.4l-37.5,0l0,-16.4Z" class="g1_1" />
<path d="M154.7,433.8l37.6,0l0,16.4l-37.6,0l0,-16.4Z" class="g1_1" />
<path d="M192.3,433.8l268.4,0l0,16.4l-268.4,0l0,-16.4Z" class="g1_1" />
<path d="M460.7,433.8l51.4,0l0,16.4l-51.4,0l0,-16.4Z" class="g1_1" />
<path d="M117.2,450.2l37.5,0l0,16.4l-37.5,0l0,-16.4Z" class="g1_1" />
<path d="M154.7,450.2l37.6,0l0,16.4l-37.6,0l0,-16.4Z" class="g1_1" />
<path d="M192.3,450.2l268.4,0l0,16.4l-268.4,0l0,-16.4Z" class="g1_1" />
<path d="M460.7,450.2l51.4,0l0,16.4l-51.4,0l0,-16.4Z" class="g1_1" />
<path d="M117.2,466.6l37.5,0l0,16.5l-37.5,0l0,-16.5Z" class="g1_1" />
<path d="M154.7,466.6l37.6,0l0,16.5l-37.6,0l0,-16.5Z" class="g1_1" />
<path d="M192.3,466.6l268.4,0l0,16.5l-268.4,0l0,-16.5Z" class="g1_1" />
<path d="M460.7,466.6l51.4,0l0,16.5l-51.4,0l0,-16.5Z" class="g1_1" />
<path d="M117.2,483.1l37.5,0l0,16.4l-37.5,0l0,-16.4Z" class="g1_1" />
<path d="M154.7,483.1l306,0l0,16.4l-306,0l0,-16.4Z" class="g1_1" />
<path d="M460.7,483.1l51.4,0l0,16.4l-51.4,0l0,-16.4Z" class="g1_1" />
<path d="M117.2,499.5l37.5,0l0,16.5l-37.5,0l0,-16.5Z" class="g1_1" />
<path d="M154.7,499.5l37.6,0l0,16.5l-37.6,0l0,-16.5Z" class="g1_1" />
<path d="M192.3,499.5l268.4,0l0,16.5l-268.4,0l0,-16.5Z" class="g1_1" />
<path d="M460.7,499.5l51.4,0l0,16.5l-51.4,0l0,-16.5Z" class="g1_1" />
<path d="M117.2,516l37.5,0l0,16.4l-37.5,0l0,-16.4Z" class="g1_1" />
<path d="M154.7,516l37.6,0l0,16.4l-37.6,0l0,-16.4Z" class="g1_1" />
<path d="M192.3,516l268.4,0l0,16.4l-268.4,0l0,-16.4Z" class="g1_1" />
<path d="M460.7,516l51.4,0l0,16.4l-51.4,0l0,-16.4Z" class="g1_1" />
<path d="M117.2,532.4l37.5,0l0,16.5l-37.5,0l0,-16.5Z" class="g1_1" />
<path d="M154.7,532.4l306,0l0,16.5l-306,0l0,-16.5Z" class="g1_1" />
<path d="M460.7,532.4l51.4,0l0,16.5l-51.4,0l0,-16.5Z" class="g1_1" />
<path d="M117.2,548.9l37.5,0l0,16.4l-37.5,0l0,-16.4Z" class="g1_1" />
<path d="M154.7,548.9l306,0l0,16.4l-306,0l0,-16.4Z" class="g1_1" />
<path d="M460.7,548.9l51.4,0l0,16.4l-51.4,0l0,-16.4Z" class="g1_1" />
<path d="M117.2,565.3l37.5,0l0,16.4l-37.5,0l0,-16.4Z" class="g1_1" />
<path d="M154.7,565.3l306,0l0,16.4l-306,0l0,-16.4Z" class="g1_1" />
<path d="M460.7,565.3l51.4,0l0,16.4l-51.4,0l0,-16.4Z" class="g1_1" />
<path d="M117.2,581.7l37.5,0l0,16.5l-37.5,0l0,-16.5Z" class="g1_1" />
<path d="M154.7,581.7l37.6,0l0,16.5l-37.6,0l0,-16.5Z" class="g1_1" />
<path d="M192.3,581.7l268.4,0l0,16.5l-268.4,0l0,-16.5Z" class="g1_1" />
<path d="M460.7,581.7l51.4,0l0,16.5l-51.4,0l0,-16.5Z" class="g1_1" />
<path d="M117.2,598.2l37.5,0l0,16.4l-37.5,0l0,-16.4Z" class="g1_1" />
<path d="M154.7,598.2l37.6,0l0,16.4l-37.6,0l0,-16.4Z" class="g1_1" />
<path d="M192.3,598.2l268.4,0l0,16.4l-268.4,0l0,-16.4Z" class="g1_1" />
<path d="M460.7,598.2l51.4,0l0,16.4l-51.4,0l0,-16.4Z" class="g1_1" />
<path d="M117.2,614.6l37.5,0l0,16.5l-37.5,0l0,-16.5Z" class="g1_1" />
<path d="M154.7,614.6l306,0l0,16.5l-306,0l0,-16.5Z" class="g1_1" />
<path d="M460.7,614.6l51.4,0l0,16.5l-51.4,0l0,-16.5Z" class="g1_1" />
<path d="M117.2,631.1l37.5,0l0,16.4l-37.5,0l0,-16.4Z" class="g1_1" />
<path d="M154.7,631.1l306,0l0,16.4l-306,0l0,-16.4Z" class="g1_1" />
<path d="M460.7,631.1l51.4,0l0,16.4l-51.4,0l0,-16.4Z" class="g1_1" />
<path d="M117.2,647.5l37.5,0l0,16.5l-37.5,0l0,-16.5Z" class="g1_1" />
<path d="M154.7,647.5l306,0l0,16.5l-306,0l0,-16.5Z" class="g1_1" />
<path d="M460.7,647.5l51.4,0l0,16.5l-51.4,0l0,-16.5Z" class="g1_1" />
<path d="M117.2,664l37.5,0l0,16.4l-37.5,0l0,-16.4Z" class="g1_1" />
<path d="M154.7,664l306,0l0,16.4l-306,0l0,-16.4Z" class="g1_1" />
<path d="M460.7,664l51.4,0l0,16.4l-51.4,0l0,-16.4Z" class="g1_1" />
<path d="M117.2,680.4l37.5,0l0,16.4l-37.5,0l0,-16.4Z" class="g1_1" />
<path d="M154.7,680.4l306,0l0,16.4l-306,0l0,-16.4Z" class="g1_1" />
<path d="M460.7,680.4l51.4,0l0,16.4l-51.4,0l0,-16.4Z" class="g1_1" />
<path d="M117.2,696.8l37.5,0l0,16.5l-37.5,0l0,-16.5Z" class="g1_1" />
<path d="M154.7,696.8l306,0l0,16.5l-306,0l0,-16.5Z" class="g1_1" />
<path d="M460.7,696.8l51.4,0l0,16.5l-51.4,0l0,-16.5Z" class="g1_1" />
<path d="M117.2,713.3l37.5,0l0,16.4l-37.5,0l0,-16.4Z" class="g1_1" />
<path d="M154.7,713.3l306,0l0,16.4l-306,0l0,-16.4Z" class="g1_1" />
<path d="M460.7,713.3l51.4,0l0,16.4l-51.4,0l0,-16.4Z" class="g1_1" />
<path d="M117.2,729.7l37.5,0l0,16.5l-37.5,0l0,-16.5Z" class="g1_1" />
<path d="M154.7,729.7l37.6,0l0,16.5l-37.6,0l0,-16.5Z" class="g1_1" />
<path d="M192.3,729.7l268.4,0l0,16.5l-268.4,0l0,-16.5Z" class="g1_1" />
<path d="M460.7,729.7l51.4,0l0,16.5l-51.4,0l0,-16.5Z" class="g1_1" />
<path d="M117.2,746.2l37.5,0l0,16.4l-37.5,0l0,-16.4Z" class="g1_1" />
<path d="M154.7,746.2l37.6,0l0,16.4l-37.6,0l0,-16.4Z" class="g1_1" />
<path d="M192.3,746.2l268.4,0l0,16.4l-268.4,0l0,-16.4Z" class="g1_1" />
<path d="M460.7,746.2l51.4,0l0,16.4l-51.4,0l0,-16.4Z" class="g1_1" />
<path d="M117.2,762.6l343.5,0l0,17.6l-343.5,0l0,-17.6Z" class="g1_1" />
<path d="M460.7,762.6l51.4,0l0,17.6l-51.4,0l0,-17.6Z" class="g1_1" />
<text 
x="117" 
y="127" 
dx="0,0,0,0,0,0,0,0,0,0,0,0,0,0,0,0,0,0,0,0,0,0,0,0,0,0,0,0,0,0,0,0,0,0,0,0" 
class="s1_1"
>CSP 587: Software Quality Management</text>

<text 
x="117" 
y="162" 
dx="0,0,0,0,0" 
class="s2_1"
>Texts</text>

<text 
x="162" 
y="192" 
dx="0,-0.1,0,0,-0.4,0,0,0" 
class="s3_1"
>S. Kan, </text>

<path d="M209.2,180.5l174,0l0,15.2l-174,0l0,-15.2Z" class="g1_1" />
<text 
x="209" 
y="192" 
dx="0,0,0,0,0,0,0,0,0,0.3,0,0,0,0,0,0,0,0.3,0,0,0,0,0,0,0,0,0,0,0" 
class="s4_1"
>Software Quality engineering,</text>

<text 
x="387" 
y="192" 
dx="0,0,0,0,0,0,0,0,-0.3,-0.6,0,0,0,0,-1.1" 
class="s3_1"
>Addison-Wesley.</text>

<path d="M153.8,188.7c0,3.3,-4.9,3.3,-4.9,0c0,-3.3,4.9,-3.3,4.9,0Z" class="g2_1" />
<text 
x="117" 
y="225" 
dx="0,0,0,0,0,0,0,0,0,0" 
class="s2_1"
>Objectives</text>

<text 
x="162" 
y="255" 
dx="0,0,0,0,0,0,0,0,0,0,0,0,0,0,0,0,0,0,0,0,0,0,0,0,0,0,0,0,0,0,0,0,0,0,0,0,-0.1,0,0,0,0,0,0,0,0,0,-0.1,0,0,0,0,0,0,0,0,0,0,0,0" 
class="s3_1"
>Students will learn methods of software quality management.</text>

<path d="M153.8,252c0,3.2,-4.9,3.2,-4.9,0c0,-3.3,4.9,-3.3,4.9,0Z" class="g2_1" />
<text 
x="162" 
y="271" 
dx="0,0,0,0,0,0,0,0,0,0,0,0,0,0,0,0,0,0,0,0,0,0,0,0,0,0,0,0,0,0,0,0,0,0,0,-0.1,0,0,0,0,0,0,0,0,0,-0.1,0,0,0,0,0,0,-0.2,0,0,0,0,0,0,0,0,0,0,0,-0.1,0,0,0,0,0,0,0,0,0,0,0,0,0,0,0,0,0,0,0,0,0,-0.1,0,0,0,0,0,0,0,0,0" 
class="s3_1"
>This will include exposure to software quality assurance, quality measures, and quality control.</text>

<path d="M153.8,267.3c0,3.2,-4.9,3.2,-4.9,0c0,-3.3,4.9,-3.3,4.9,0Z" class="g2_1" />
<text 
x="162" 
y="286" 
dx="0,0,0,0,0,0,0,0,0,0,0,0,-0.1,0,0,0,0,0,0,0,0,0,0,0,0,0,0,0,0,0,0,0,0,0,0,0,0,0,0,0,0,0,0,0,0,0,0,0,0,0,0,0,0,0,0,0,0,0,0,0,0,0,0,0,0,0,0,0,0,0,0,0,0,0,-0.1,0,0" 
class="s3_1"
>These quality management methods will be explained at the applications level.</text>

<path d="M153.8,282.5c0,3.3,-4.9,3.3,-4.9,0c0,-3.2,4.9,-3.2,4.9,0Z" class="g2_1" />
<text 
x="117" 
y="319" 
dx="0,0,0,0,0,0,0,0,0,0,0,0,0" 
class="s2_1"
>Prerequisites</text>

<text 
x="162" 
y="349" 
dx="0,0,0,0,0,0,0,0,0,0,0,0,0,0,0,-0.2,0,0,0,0,0" 
class="s3_1"
>CS 487 or equivalent.</text>

<path d="M153.8,345.8c0,3.3,-4.9,3.3,-4.9,0c0,-3.2,4.9,-3.2,4.9,0Z" class="g2_1" />
<text 
x="117" 
y="382" 
dx="0,0,0,0,0,0,0,0" 
class="s2_1"
>Syllabus</text>

<text 
x="139" 
y="414" 
dx="0" 
class="s3_1"
>•</text>

<text 
x="154" 
y="414" 
dx="0,0,0,0,0,0,-0.1,0,0,0,0,0,0,-0.2,0,0,0,0,0,0,0,0,0,-0.2,0" 
class="s3_1"
>Quality Assurance Program</text>

<text 
x="468" 
y="414" 
dx="0,0,0,0,0,0,0" 
class="s3_1"
>4 hours</text>

<text 
x="177" 
y="430" 
dx="0" 
class="s5_1"
>￮</text>

<text 
x="192" 
y="430" 
dx="0,0,0,0,0,-0.1,0,0,0,0,0,0,0,0,0,0,0,0,0,0,0,0,0,0,0,0,-0.1,0,0,0,0,0,0,0,0,0,0" 
class="s3_1"
>Software Product vs. Software process</text>

<text 
x="177" 
y="447" 
dx="0" 
class="s5_1"
>￮</text>

<text 
x="192" 
y="447" 
dx="0,0,0,0,0,0,-0.1,0,0,0,0,0,0,-0.2,0,0,0,0,0,0,0,0,0,0,0,0,0,0,-0.1,0,0,0,0,0,0,0,0" 
class="s3_1"
>Quality Assurance vs. Quality Control</text>

<text 
x="177" 
y="463" 
dx="0" 
class="s5_1"
>￮</text>

<text 
x="192" 
y="463" 
dx="0,0,0,0,0,0,-0.1,0,0,0,0,0,0,0,0,0,0,0,0,0,0,0,0,0,0,0" 
class="s3_1"
>Quality Management Process</text>

<text 
x="177" 
y="480" 
dx="0" 
class="s5_1"
>￮</text>

<text 
x="192" 
y="480" 
dx="0,0,0,0,0,0,-0.1,0,0,0,0,0" 
class="s3_1"
>Quality Cost</text>

<text 
x="139" 
y="496" 
dx="0" 
class="s3_1"
>•</text>

<text 
x="154" 
y="496" 
dx="0,0,0,0,0,0,-0.1,0,0,0,0,0,0,-0.2,0,0,0,0,0,0,0,0,0,-0.2,0" 
class="s3_1"
>Quality Assurance Program</text>

<text 
x="468" 
y="496" 
dx="0,0,0,0,0,0,0" 
class="s3_1"
>4 hours</text>

<text 
x="177" 
y="512" 
dx="0" 
class="s5_1"
>￮</text>

<text 
x="192" 
y="512" 
dx="0,-1.1,0,0,0,0,0,0,0,0,0,0,0,0,-0.1,0,0,0,0,0,0,-0.1,0,0,0,0,0,0,0,0,0,0,0,0,0,0,0,0,0" 
class="s3_1"
>Types of Software Development Processes</text>

<text 
x="177" 
y="529" 
dx="0" 
class="s5_1"
>￮</text>

<text 
x="192" 
y="529" 
dx="0,0,0,0,0,0,0,0,-0.2,0,0,0,0,0,0,0,0,0,0,0,0,0,0,0" 
class="s3_1"
>Configuration Management</text>

<text 
x="139" 
y="545" 
dx="0" 
class="s3_1"
>•</text>

<text 
x="154" 
y="545" 
dx="0,0,0,0,0,-0.1,0,0,0,0,0,0,0,0,0,-0.1,0,0,-0.1,0,0,0,0" 
class="s3_1"
>Software Quality Audits</text>

<text 
x="468" 
y="545" 
dx="0,0,0,0,0,0,0" 
class="s3_1"
>3 hours</text>

<text 
x="139" 
y="562" 
dx="0" 
class="s3_1"
>•</text>

<text 
x="154" 
y="562" 
dx="0,0,0,0,0,-0.1,0,0,0,0,0,0,0,0,0,-0.1,0,0,-0.1,0,0,0,0,0,0,0,0" 
class="s3_1"
>Software Quality Attributes</text>

<text 
x="468" 
y="562" 
dx="0,0,0,0,0,0,0" 
class="s3_1"
>3 hours</text>

<text 
x="139" 
y="578" 
dx="0" 
class="s3_1"
>•</text>

<text 
x="154" 
y="578" 
dx="0,0,0,0,0,-0.1,0,0,0,0,0,0,0,0,0,-0.1,0,0,0,0,0,0,0,0" 
class="s3_1"
>Software Quality Metrics</text>

<text 
x="468" 
y="578" 
dx="0,0,0,0,0,0,0" 
class="s3_1"
>5 hours</text>

<text 
x="177" 
y="595" 
dx="0" 
class="s5_1"
>￮</text>

<text 
x="192" 
y="595" 
dx="0,0,0,0,0,-0.1,0,0,0,0,0,0,0,0,0,0,0,0,0,0,0,0,0,0" 
class="s3_1"
>Software Product Metrics</text>

<text 
x="177" 
y="611" 
dx="0" 
class="s5_1"
>￮</text>

<text 
x="192" 
y="611" 
dx="0,0,0,0,0,-0.1,0,0,0,0,0,0,0,0,0,0,0,0,0,0,0,0,0,0" 
class="s3_1"
>Software Process Metrics</text>

<text 
x="139" 
y="628" 
dx="0" 
class="s3_1"
>•</text>

<text 
x="154" 
y="628" 
dx="0,0,0,0,0,-0.1,0,0,0,0,-1.2,0,0,0,0,0,0,0,-1.2,0,0,0,0,0,0,0,0" 
class="s3_1"
>Software Testing Techniques</text>

<text 
x="468" 
y="628" 
dx="0,0,0,0,0,0,0" 
class="s3_1"
>3 hours</text>

<text 
x="139" 
y="644" 
dx="0" 
class="s3_1"
>•</text>

<text 
x="154" 
y="644" 
dx="0,0,0,0,0,-0.1,0,0,0,0,-1.2,0,0,0,0,0,0,0,0,0,-0.2,0,0,0,0,0,0" 
class="s3_1"
>Software Testing Strategies</text>

<text 
x="468" 
y="644" 
dx="0,0,0,0,0,0,0" 
class="s3_1"
>3 hours</text>

<text 
x="139" 
y="660" 
dx="0" 
class="s3_1"
>•</text>

<text 
x="154" 
y="660" 
dx="0,0,0,0,0,-0.1,0,0,0,0,-0.3,0,0,0,0,0" 
class="s3_1"
>Software Reviews</text>

<text 
x="468" 
y="660" 
dx="0,0,0,0,0,0,0" 
class="s3_1"
>2 hours</text>

<text 
x="139" 
y="677" 
dx="0" 
class="s3_1"
>•</text>

<text 
x="154" 
y="677" 
dx="0,0,0,0,0,-0.1,0,0,0,0,-0.3,0,0,0,0,0,0,0,0,0,-1.1,0,0,-0.3,0,0,0,0,0,0,0,0,0,0,0,0,0,0,0,0" 
class="s3_1"
>Software Reliability, Reliability Models</text>

<text 
x="468" 
y="677" 
dx="0,0,0,0,0,0,0" 
class="s3_1"
>4 hours</text>

<text 
x="139" 
y="693" 
dx="0" 
class="s3_1"
>•</text>

<text 
x="154" 
y="693" 
dx="0,0,0,0,0,-0.1,0,0,0,0,0,0,0,0,0,-0.1,0,0,0,0,0,0,-0.1,-0.1,0,0,0,0" 
class="s3_1"
>Software Quality Improvement</text>

<text 
x="468" 
y="693" 
dx="0,0,0,0,0,0,0" 
class="s3_1"
>3 hours</text>

<text 
x="139" 
y="710" 
dx="0" 
class="s3_1"
>•</text>

<text 
x="154" 
y="710" 
dx="0,0,0,0,0,0,0,0,0,0,0,0,0,0,0,0,0,-0.1,0,0,0,0,0,0,0,0,0,-0.1,0,0,0,0,0,0,-0.2,0,0,0" 
class="s3_1"
>Statistical Software quality Assurance</text>

<text 
x="468" 
y="710" 
dx="0,0,0,0,0,0,0" 
class="s3_1"
>6 hours</text>

<text 
x="139" 
y="726" 
dx="0" 
class="s3_1"
>•</text>

<text 
x="154" 
y="726" 
dx="0,0,0,0,0,0,-0.1,0,0,0,0,0,-0.2,0,0,0,0,0,0,0,0,0,0,-0.2,0,0" 
class="s3_1"
>Quality Appraisal Programs</text>

<text 
x="468" 
y="726" 
dx="0,0,0,0,0,0,0" 
class="s3_1"
>5 hours</text>

<text 
x="177" 
y="743" 
dx="0" 
class="s5_1"
>￮</text>

<text 
x="192" 
y="743" 
dx="0,0,0,0,0,0,0,0,0,0,0,0,0,0,0,0,0,0,0,0,0,0,0,0,-0.1,0,0,0,0,0,0" 
class="s3_1"
>SEI's Capability Maturity Model</text>

<text 
x="177" 
y="759" 
dx="0" 
class="s5_1"
>￮</text>

<text 
x="192" 
y="759" 
dx="0,0,0,0,0,0,0,0" 
class="s3_1"
>ISO 9000</text>

<text 
x="118" 
y="775" 
dx="0,-1.2,0,0,0" 
class="s3_1"
>Total</text>

<text 
x="460" 
y="775" 
dx="0,0,0,0,0,0,0,0" 
class="s3_1"
>45 hours</text>

<text 
x="27" 
y="33" 
dx="0,0,0,0,0,0,0,0,0,0,0,0,0,0,0,0,-0.3,0,0,0,0,0,0,0,0,0,0,0,0,0,0,0,0,0,0,0,0,0,0,0,0,0,0,0,0,0,0,0,0,0,0,0,0,0,0,0,0,0" 
class="s6_1"
>CSP 587: Software Quality Management - CS Dept, Illinoi...</text>

<text 
x="868" 
y="33" 
dx="0,0,0,0,0,0" 
class="s6_1"
>1 of 1</text>



<!-- Any embedded fonts defined here -->
<style type="text/css" ><![CDATA[

@font-face {
	font-family: HelveticaNeue_13;
	src: url("fonts/HelveticaNeue_13.woff") format("woff");
}

@font-face {
	font-family: Verdana_l;
	src: url("fonts/Verdana_l.woff") format("woff");
}

@font-face {
	font-family: Verdana-Italic_q;
	src: url("fonts/Verdana-Italic_q.woff") format("woff");
}

@font-face {
	font-family: Verdana-Bold_b;
	src: url("fonts/Verdana-Bold_b.woff") format("woff");
}

@font-face {
	font-family: Verdana-Bold_g;
	src: url("fonts/Verdana-Bold_g.woff") format("woff");
}

@font-face {
	font-family: MS-PMincho_z;
	src: url("fonts/MS-PMincho_z.woff") format("woff");
}

]]></style>

</svg>
